<svg width="33" height="46" viewBox="0 0 33 46" fill="none" xmlns="http://www.w3.org/2000/svg">
<rect width="33" height="46" rx="5" transform="matrix(-1 0 0 1 33 0)" fill="#D8E2DC"/>
<path d="M21.0606 13.454C21.3418 13.7353 21.4998 14.1168 21.4998 14.5145C21.4998 14.9122 21.3418 15.2937 21.0606 15.575L13.6356 23L21.0606 30.425C21.3338 30.7079 21.485 31.0868 21.4816 31.4801C21.4782 31.8734 21.3204 32.2496 21.0423 32.5277C20.7642 32.8058 20.388 32.9636 19.9947 32.967C19.6014 32.9704 19.2225 32.8192 18.9396 32.546L10.4541 24.0605C10.1729 23.7792 10.0149 23.3977 10.0149 23C10.0149 22.6023 10.1729 22.2208 10.4541 21.9395L18.9396 13.454C19.2209 13.1728 19.6023 13.0148 20.0001 13.0148C20.3978 13.0148 20.7793 13.1728 21.0606 13.454Z" fill="#43AA8B"/>
</svg>
