<svg width="25" height="24" viewBox="0 0 25 24" fill="none" xmlns="http://www.w3.org/2000/svg">
<g clip-path="url(#clip0_130_957)">
<path fill-rule="evenodd" clip-rule="evenodd" d="M4.92954 12C4.92968 10.4605 5.37467 8.95364 6.21111 7.66038C7.04754 6.36712 8.2399 5.34234 9.6451 4.70901C11.0503 4.07568 12.6086 3.8607 14.1332 4.08987C15.6577 4.31904 17.0836 4.98262 18.2398 6.00099C19.396 7.01936 20.2334 8.34926 20.6516 9.83111C21.0697 11.313 21.0507 12.8838 20.597 14.3552C20.1433 15.8265 19.274 17.1359 18.0936 18.1262C16.9132 19.1165 15.4717 19.7456 13.9421 19.938V14H15.9448C16.2104 14 16.4651 13.8946 16.6529 13.7071C16.8407 13.5196 16.9462 13.2652 16.9462 13C16.9462 12.7348 16.8407 12.4804 16.6529 12.2929C16.4651 12.1054 16.2104 12 15.9448 12H13.9421V10C13.9421 9.73478 14.0476 9.48043 14.2354 9.29289C14.4232 9.10536 14.6779 9 14.9435 9H15.4441C15.7097 9 15.9644 8.89464 16.1522 8.70711C16.34 8.51957 16.4455 8.26522 16.4455 8C16.4455 7.73478 16.34 7.48043 16.1522 7.29289C15.9644 7.10536 15.7097 7 15.4441 7H14.9435C14.1467 7 13.3826 7.31607 12.8192 7.87868C12.2558 8.44129 11.9393 9.20435 11.9393 10V12H9.9365C9.67091 12 9.4162 12.1054 9.2284 12.2929C9.04061 12.4804 8.9351 12.7348 8.9351 13C8.9351 13.2652 9.04061 13.5196 9.2284 13.7071C9.4162 13.8946 9.67091 14 9.9365 14H11.9393V19.938C10.0033 19.6942 8.22293 18.7533 6.93233 17.2917C5.64172 15.8302 4.92957 13.9486 4.92954 12ZM12.9407 22C18.4714 22 22.9546 17.523 22.9546 12C22.9546 6.477 18.4714 2 12.9407 2C7.40999 2 2.92676 6.477 2.92676 12C2.92676 17.523 7.40999 22 12.9407 22Z" fill="black"/>
</g>
<defs>
<clipPath id="clip0_130_957">
<rect width="24.0334" height="24" fill="white" transform="translate(0.923828)"/>
</clipPath>
</defs>
</svg>
