<svg width="33" height="46" viewBox="0 0 33 46" fill="none" xmlns="http://www.w3.org/2000/svg">
<rect width="33" height="46" rx="5" fill="#D8E2DC"/>
<path d="M11.9394 13.454C11.6582 13.7353 11.5002 14.1168 11.5002 14.5145C11.5002 14.9122 11.6582 15.2937 11.9394 15.575L19.3644 23L11.9394 30.425C11.6662 30.7079 11.515 31.0868 11.5184 31.4801C11.5218 31.8734 11.6796 32.2496 11.9577 32.5277C12.2358 32.8058 12.612 32.9636 13.0053 32.967C13.3986 32.9704 13.7775 32.8192 14.0604 32.546L22.5459 24.0605C22.8271 23.7792 22.9851 23.3977 22.9851 23C22.9851 22.6023 22.8271 22.2208 22.5459 21.9395L14.0604 13.454C13.7791 13.1728 13.3977 13.0148 12.9999 13.0148C12.6022 13.0148 12.2207 13.1728 11.9394 13.454Z" fill="#43AA8B"/>
</svg>
