<svg width="201" height="201" viewBox="0 0 201 201" fill="none" xmlns="http://www.w3.org/2000/svg">
<g filter="url(#filter0_i_105_3527)">
<path d="M140.583 80.3333C140.583 90.9862 136.352 101.203 128.819 108.735C121.286 116.268 111.07 120.5 100.417 120.5C89.7638 120.5 79.5473 116.268 72.0145 108.735C64.4818 101.203 60.25 90.9862 60.25 80.3333C60.25 69.6805 64.4818 59.4639 72.0145 51.9312C79.5473 44.3985 89.7638 40.1667 100.417 40.1667C111.07 40.1667 121.286 44.3985 128.819 51.9312C136.352 59.4639 140.583 69.6805 140.583 80.3333Z" fill="#F4ACB7"/>
<path fill-rule="evenodd" clip-rule="evenodd" d="M96.3197 200.753C42.7624 198.604 0 154.501 0 100.417C0 44.9565 44.9565 0 100.417 0C155.877 0 200.833 44.9565 200.833 100.417C200.833 155.877 155.877 200.833 100.417 200.833C99.9581 200.836 99.4995 200.836 99.041 200.833C98.1322 200.833 97.2234 200.803 96.3197 200.753ZM35.9793 163.78C35.2285 161.624 34.9729 159.326 35.2316 157.058C35.4902 154.789 36.2565 152.608 37.4734 150.677C38.6903 148.745 40.3266 147.112 42.261 145.899C44.1953 144.686 46.3779 143.925 48.6469 143.671C87.7893 139.338 113.285 139.73 152.237 143.762C154.509 143.998 156.697 144.75 158.634 145.96C160.572 147.17 162.207 148.806 163.417 150.744C164.626 152.682 165.378 154.87 165.614 157.142C165.85 159.414 165.564 161.71 164.779 163.855C181.473 146.964 190.822 124.165 190.792 100.417C190.792 50.5046 150.329 10.0417 100.417 10.0417C50.5046 10.0417 10.0417 50.5046 10.0417 100.417C10.0417 125.099 19.9377 147.472 35.9793 163.78Z" fill="#F4ACB7"/>
</g>
<defs>
<filter id="filter0_i_105_3527" x="0" y="0" width="200.833" height="204.836" filterUnits="userSpaceOnUse" color-interpolation-filters="sRGB">
<feFlood flood-opacity="0" result="BackgroundImageFix"/>
<feBlend mode="normal" in="SourceGraphic" in2="BackgroundImageFix" result="shape"/>
<feColorMatrix in="SourceAlpha" type="matrix" values="0 0 0 0 0 0 0 0 0 0 0 0 0 0 0 0 0 0 127 0" result="hardAlpha"/>
<feOffset dy="4"/>
<feGaussianBlur stdDeviation="2"/>
<feComposite in2="hardAlpha" operator="arithmetic" k2="-1" k3="1"/>
<feColorMatrix type="matrix" values="0 0 0 0 0 0 0 0 0 0 0 0 0 0 0 0 0 0 0.25 0"/>
<feBlend mode="normal" in2="shape" result="effect1_innerShadow_105_3527"/>
</filter>
</defs>
</svg>
