<svg width="25" height="24" viewBox="0 0 25 24" fill="none" xmlns="http://www.w3.org/2000/svg">
<g id="instagram">
<path id="Vector" d="M12.1291 9C11.3324 9 10.5683 9.31607 10.0049 9.87868C9.44148 10.4413 9.12497 11.2044 9.12497 12C9.12497 12.7956 9.44148 13.5587 10.0049 14.1213C10.5683 14.6839 11.3324 15 12.1291 15C12.9259 15 13.69 14.6839 14.2534 14.1213C14.8168 13.5587 15.1333 12.7956 15.1333 12C15.1333 11.2044 14.8168 10.4413 14.2534 9.87868C13.69 9.31607 12.9259 9 12.1291 9ZM12.1291 7C13.4571 7 14.7306 7.52678 15.6696 8.46447C16.6086 9.40215 17.1361 10.6739 17.1361 12C17.1361 13.3261 16.6086 14.5979 15.6696 15.5355C14.7306 16.4732 13.4571 17 12.1291 17C10.8012 17 9.52768 16.4732 8.58869 15.5355C7.64971 14.5979 7.12219 13.3261 7.12219 12C7.12219 10.6739 7.64971 9.40215 8.58869 8.46447C9.52768 7.52678 10.8012 7 12.1291 7ZM18.6382 6.75C18.6382 7.08152 18.5063 7.39946 18.2716 7.63388C18.0368 7.8683 17.7184 8 17.3864 8C17.0545 8 16.7361 7.8683 16.5013 7.63388C16.2666 7.39946 16.1347 7.08152 16.1347 6.75C16.1347 6.41848 16.2666 6.10054 16.5013 5.86612C16.7361 5.6317 17.0545 5.5 17.3864 5.5C17.7184 5.5 18.0368 5.6317 18.2716 5.86612C18.5063 6.10054 18.6382 6.41848 18.6382 6.75ZM12.1291 4C9.6517 4 9.24714 4.007 8.09454 4.058C7.30945 4.095 6.78272 4.2 6.29404 4.39C5.88509 4.53994 5.51537 4.78026 5.21254 5.093C4.89911 5.3954 4.65812 5.76458 4.50756 6.173C4.31729 6.663 4.21215 7.188 4.1761 7.971C4.12402 9.075 4.11702 9.461 4.11702 12C4.11702 14.475 4.12402 14.878 4.1751 16.029C4.21215 16.812 4.31729 17.339 4.50656 17.826C4.67679 18.261 4.87707 18.574 5.20953 18.906C5.547 19.242 5.86044 19.443 6.29104 19.609C6.78572 19.8 7.31245 19.906 8.09354 19.942C9.19907 19.994 9.58561 20 12.1281 20C14.6066 20 15.0101 19.993 16.1627 19.942C16.9458 19.905 17.4726 19.8 17.9622 19.611C18.3708 19.4603 18.7404 19.2201 19.0438 18.908C19.3812 18.572 19.5825 18.259 19.7487 17.828C19.939 17.336 20.0451 16.81 20.0812 16.028C20.1333 14.925 20.1393 14.538 20.1393 12C20.1393 9.526 20.1323 9.122 20.0812 7.971C20.0441 7.189 19.938 6.661 19.7487 6.173C19.5978 5.76502 19.3572 5.39598 19.0448 5.093C18.7421 4.77985 18.3723 4.53917 17.9632 4.389C17.4726 4.199 16.9458 4.094 16.1627 4.058C15.0582 4.006 14.6727 4 12.1291 4ZM12.1291 2C14.8499 2 15.1894 2.01 16.2579 2.06C17.3234 2.11 18.0504 2.277 18.6883 2.525C19.3492 2.779 19.9059 3.123 20.4627 3.678C20.9719 4.1779 21.3659 4.78259 21.6173 5.45C21.8647 6.087 22.0329 6.813 22.083 7.878C22.13 8.944 22.1431 9.283 22.1431 12C22.1431 14.717 22.133 15.056 22.083 16.122C22.0329 17.187 21.8647 17.912 21.6173 18.55C21.3666 19.2178 20.9725 19.8226 20.4627 20.322C19.962 20.8303 19.3565 21.2238 18.6883 21.475C18.0504 21.722 17.3234 21.89 16.2579 21.94C15.1894 21.987 14.8499 22 12.1291 22C9.40837 22 9.06889 21.99 8.00041 21.94C6.93493 21.89 6.20892 21.722 5.57003 21.475C4.90143 21.2245 4.29579 20.8309 3.79557 20.322C3.28629 19.8222 2.89227 19.2175 2.64096 18.55C2.39262 17.913 2.22539 17.187 2.17532 16.122C2.12725 15.056 2.11523 14.717 2.11523 12C2.11523 9.283 2.12525 8.944 2.17532 7.878C2.22539 6.812 2.39262 6.088 2.64096 5.45C2.89155 4.78218 3.28566 4.17732 3.79557 3.678C4.29593 3.16923 4.90153 2.77573 5.57003 2.525C6.20792 2.277 6.93393 2.11 8.00041 2.06C9.06889 2.013 9.40837 2 12.1291 2Z" fill="black"/>
</g>
</svg>
