<svg width="25" height="24" viewBox="0 0 25 24" fill="none" xmlns="http://www.w3.org/2000/svg">
<path fill-rule="evenodd" clip-rule="evenodd" d="M15.7776 3.34297C16.2873 3.25597 16.8571 3.22697 17.3939 3.31797C18.3499 3.47924 19.2358 3.9226 19.9374 4.59097C20.394 4.60097 20.8437 4.51097 21.2412 4.38297C21.6254 4.25784 21.9943 4.08977 22.3407 3.88197L22.3497 3.87597C22.4939 3.78002 22.6669 3.73682 22.8394 3.75369C23.0118 3.77055 23.1731 3.84645 23.296 3.96851C23.4188 4.09057 23.4956 4.25129 23.5133 4.42342C23.531 4.59555 23.4886 4.76851 23.3932 4.91297C23.1859 5.22797 22.8965 5.78997 22.5731 6.41997L22.4178 6.72097C22.2326 7.08097 22.0423 7.44497 21.8651 7.75697C21.7539 7.95297 21.6348 8.15197 21.5146 8.32397V8.59797C21.5269 10.2366 21.2123 11.8613 20.589 13.3772C19.9658 14.8931 19.0465 16.2699 17.8847 17.4271C16.7229 18.5844 15.342 19.499 13.8224 20.1176C12.3029 20.7362 10.6751 21.0463 9.03425 21.03C6.65639 21.0321 4.32857 20.348 2.33094 19.06C2.18815 18.9677 2.08094 18.8299 2.02683 18.6689C1.97272 18.5079 1.97492 18.3333 2.03307 18.1737C2.09122 18.0142 2.20188 17.879 2.34694 17.7904C2.49201 17.7018 2.66289 17.665 2.83163 17.686C4.21142 17.8507 5.60987 17.6284 6.87024 17.044C6.25532 16.7648 5.70535 16.3608 5.25537 15.8577C4.80539 15.3547 4.46525 14.7635 4.25661 14.122C4.21686 13.9991 4.20952 13.8682 4.23531 13.7417C4.2611 13.6152 4.31914 13.4975 4.40382 13.4L4.41383 13.39C3.90551 12.9377 3.49812 12.3838 3.21812 11.7641C2.93812 11.1444 2.79177 10.4728 2.78857 9.79297V9.74097C2.7885 9.57632 2.84268 9.41622 2.94276 9.28538C3.04284 9.15454 3.18326 9.06021 3.34234 9.01697C3.00325 8.34131 2.82731 7.59573 2.82863 6.83997C2.82806 5.98314 3.05249 5.14114 3.47953 4.39797C3.54021 4.29247 3.62567 4.20329 3.72854 4.13813C3.83142 4.07297 3.94863 4.03378 4.07005 4.02394C4.19148 4.01409 4.31348 4.0339 4.42554 4.08164C4.53759 4.12938 4.63633 4.20362 4.71325 4.29797C6.46487 6.4529 8.97435 7.85863 11.729 8.22797C11.7051 7.32815 11.9324 6.43944 12.3855 5.6613C12.8386 4.88316 13.4996 4.24629 14.2946 3.82197C14.6971 3.60797 15.2299 3.43697 15.7786 3.34297H15.7776ZM4.48393 10.891C4.67839 11.4375 5.0116 11.9242 5.45096 12.3036C5.89032 12.6829 6.42078 12.9418 6.99041 13.055C7.15453 13.0876 7.30302 13.1741 7.41234 13.3006C7.52165 13.4271 7.58551 13.5865 7.59379 13.7534C7.60207 13.9203 7.5543 14.0852 7.45805 14.2219C7.3618 14.3586 7.22259 14.4593 7.06251 14.508C6.79013 14.591 6.51074 14.648 6.22735 14.681C6.53502 15.0773 6.92768 15.3998 7.37649 15.6247C7.8253 15.8497 8.31887 15.9714 8.82095 15.981C8.97582 15.9839 9.126 16.0345 9.25092 16.126C9.37583 16.2175 9.46937 16.3453 9.51871 16.4919C9.56806 16.6385 9.5708 16.7968 9.52656 16.945C9.48231 17.0933 9.39325 17.2242 9.27158 17.32C8.22738 18.1404 7.01392 18.7193 5.71864 19.015C6.791 19.3577 7.9103 19.5315 9.03625 19.53H9.04527C10.4873 19.5452 11.9179 19.2732 13.2534 18.73C14.589 18.1868 15.8028 17.3833 16.8239 16.3663C17.8449 15.3494 18.6528 14.1394 19.2003 12.8072C19.7478 11.4749 20.0239 10.047 20.0125 8.60697V8.07197C20.0123 7.88986 20.0786 7.71391 20.1988 7.57697C20.2689 7.49797 20.389 7.31597 20.5593 7.01697C20.7195 6.73497 20.8977 6.39497 21.083 6.03597L21.116 5.96997C20.5929 6.08752 20.0543 6.12027 19.5208 6.06697C19.3404 6.04734 19.1732 5.96315 19.0502 5.82997C18.5466 5.28465 17.876 4.92167 17.1435 4.79797C16.7741 4.74578 16.3986 4.75423 16.032 4.82297C15.6746 4.87852 15.3275 4.98741 15.0025 5.14597C14.3473 5.49557 13.8268 6.05249 13.5227 6.72936C13.2186 7.40623 13.1481 8.16476 13.3222 8.88597C13.3496 8.99937 13.3502 9.1176 13.3238 9.23125C13.2974 9.3449 13.2448 9.45085 13.1703 9.54065C13.0957 9.63046 13.0012 9.70165 12.8942 9.74858C12.7873 9.7955 12.6708 9.81687 12.5541 9.81097C9.47745 9.65556 6.56868 8.36271 4.3938 6.18397C4.35155 6.40041 4.33042 6.62045 4.33072 6.84097V6.84297C4.32959 7.39371 4.46486 7.93619 4.72449 8.4221C4.98412 8.908 5.36004 9.32225 5.81878 9.62797C5.9535 9.71851 6.0552 9.85022 6.10864 10.0033C6.16208 10.1565 6.16438 10.3228 6.1152 10.4773C6.06602 10.6319 5.96801 10.7663 5.83585 10.8605C5.7037 10.9548 5.54452 11.0037 5.38218 11C5.07996 10.9916 4.77921 10.9558 4.48393 10.891Z" fill="black"/>
</svg>
